# xmcd
#
# Track frame offsets:
#	150
#	15355
#	32967
#	47637
#	61885
#	76357
#	91607
#	105985
#	119042
#	134650
#	155947
#	170627
#	190770
#	202510
#
# Disc length: 2900 seconds
#
# Revision: 1
# Processed by: cddbd v1.5PL3 Copyright (c) Steve Scherf et al.
# Submitted via: CDex 1.50Beta5
#
DISCID=b20b520e
DTITLE=沢田研二 - Royal Straight Flush(1971〜1979) Disc 1
DYEAR=1997
DGENRE=Pop
TTITLE0=君をのせて
TTITLE1=許されない愛
TTITLE2=あなただけでいい
TTITLE3=死んでもいい
TTITLE4=あなたへの愛
TTITLE5=危険なふたり
TTITLE6=胸いっぱいの悲しみ
TTITLE7=魅せられた夜
TTITLE8=恋は邪魔もの
TTITLE9=追憶
TTITLE10=愛の逃亡者
TTITLE11=白い部屋
TTITLE12=巴里にひとり
TTITLE13=時の過ぎゆくままに
EXTD=
EXTT0=
EXTT1=
EXTT2=
EXTT3=
EXTT4=
EXTT5=
EXTT6=
EXTT7=
EXTT8=
EXTT9=
EXTT10=
EXTT11=
EXTT12=
EXTT13=
PLAYORDER=
